<svg width="600" height="600" viewBox="0 0 600 600" xmlns="http://www.w3.org/2000/svg" style="background:#0a0a0a">
  <!-- Naga -->
  <circle cx="300" cy="200" r="80" fill="#2e7d32" />
  <path d="M240,200 Q200,180 220,160 Q240,140 260,160" fill="#2e7d32"/>
  <path d="M360,200 Q400,180 380,160 Q360,140 340,160" fill="#2e7d32"/>
  
  <!-- Kacamata -->
  <rect x="260" y="180" width="30" height="15" fill="black"/>
  <rect x="310" y="180" width="30" height="15" fill="black"/>
  <line x1="290" y1="188" x2="310" y2="188" stroke="black" stroke-width="3"/>

  <!-- Jas -->
  <rect x="240" y="280" width="120" height="160" fill="black"/>
  <polygon points="240,280 300,320 360,280" fill="black"/>

  <!-- Dasi Merah -->
  <polygon points="295,280 305,280 310,320 290,320" fill="red"/>

  <!-- Koper -->
  <rect x="180" y="370" width="60" height="50" fill="black" rx="5" />
  <rect x="195" y="360" width="30" height="10" fill="black" rx="2" />

  <!-- Sniper Beretta -->
  <rect x="370" y="190" width="160" height="10" fill="#444"/>
  <rect x="370" y="190" width="20" height="50" fill="#222"/>
  <circle cx="530" cy="195" r="5" fill="#999"/>

  <!-- Teks -->
  <text x="50%" y="550" fill="white" font-size="28" font-family="Arial" font-weight="bold" text-anchor="middle">
    NEWBIE CYBER SECURITY
  </text>
</svg>
