<svg width="1000" height="1000" viewBox="0 0 1000 1000" xmlns="http://www.w3.org/2000/svg" style="background:#0a0a0a">
  <!-- Bayangan naga -->
  <ellipse cx="500" cy="850" rx="200" ry="30" fill="#000" opacity="0.6"/>

  <!-- Kepala naga -->
  <path d="M500 200 C460 170, 440 130, 470 110 C510 80, 570 100, 590 140 C600 170, 580 190, 550 210 Z" fill="#27ae60"/>
  <!-- Tanduk ekstrem -->
  <path d="M470 110 L460 60 L480 90 Z" fill="#14532d"/>
  <path d="M540 100 L560 50 L550 90 Z" fill="#14532d"/>

  <!-- Kacamata hitam futuristik -->
  <rect x="480" y="160" width="40" height="25" rx="4" fill="#000"/>
  <rect x="530" y="160" width="40" height="25" rx="4" fill="#000"/>
  <line x1="520" y1="172" x2="530" y2="172" stroke="#0ff" stroke-width="2"/>

  <!-- Leher bersisik -->
  <path d="M500 210 C470 240, 480 290, 500 310 C520 290, 530 240, 500 210 Z" fill="#1abc9c"/>
  <!-- Skala sisik -->
  <circle cx="500" cy="240" r="4" fill="#16a085"/>
  <circle cx="490" cy="260" r="4" fill="#16a085"/>
  <circle cx="510" cy="260" r="4" fill="#16a085"/>

  <!-- Jas hitam bergaya militer -->
  <path d="M390 310 L610 310 L670 600 L330 600 Z" fill="#0f0f0f"/>
  <path d="M390 310 L500 370 L610 310 L580 370 L500 340 L420 370 Z" fill="#1a1a1a"/>

  <!-- Dasi merah pekat -->
  <polygon points="490,310 510,310 525,370 475,370" fill="#ff2e2e"/>
  <polygon points="475,370 525,370 510,450 490,450" fill="#c0392b"/>

  <!-- Koper bergaya titanium -->
  <rect x="270" y="470" width="100" height="80" rx="8" fill="#111"/>
  <rect x="295" y="455" width="50" height="15" rx="3" fill="#333"/>
  <rect x="310" y="500" width="20" height="6" fill="#666"/>

  <!-- Sniper Beretta dengan detail -->
  <rect x="650" y="180" width="220" height="12" fill="#555"/>
  <rect x="650" y="180" width="30" height="90" fill="#222"/>
  <rect x="670" y="190" width="10" height="50" fill="#333"/>
  <circle cx="870" cy="185" r="6" fill="#aaa"/>
  <line x1="680" y1="215" x2="800" y2="215" stroke="#999" stroke-width="2"/>
  <!-- Laser targeting -->
  <line x1="860" y1="185" x2="950" y2="130" stroke="#f00" stroke-width="2" stroke-dasharray="4"/>

  <!-- Panel sibernetik dada -->
  <rect x="470" y="380" width="60" height="20" fill="#00ffcc" rx="4"/>
  <circle cx="500" cy="390" r="3" fill="#0ff"/>
  <circle cx="520" cy="390" r="3" fill="#0ff"/>

  <!-- Tulisan dengan font cyber -->
  <text x="500" y="700" font-family="monospace" font-size="40" fill="#00ffcc" text-anchor="middle">
    NEWBIE CYBER SECURITY
  </text>
  <text x="500" y="740" font-family="monospace" font-size="20" fill="#888" text-anchor="middle" letter-spacing="1">
    Professional Hacker Intelligence Unit
  </text>
</svg>
