<svg width="800" height="800" viewBox="0 0 800 800" xmlns="http://www.w3.org/2000/svg" style="background:#0b0c10">
  <!-- Kepala dan leher naga -->
  <path d="M400 150 C380 130, 360 120, 340 140 C320 160, 320 200, 340 220 C360 240, 380 240, 400 220" fill="#2ecc71"/>
  <!-- Tanduk -->
  <path d="M360 120 L350 100 L370 110 Z" fill="#27ae60"/>
  <path d="M380 120 L370 95 L390 105 Z" fill="#27ae60"/>

  <!-- Kacamata hitam -->
  <rect x="350" y="165" width="30" height="20" rx="3" fill="#000"/>
  <rect x="390" y="165" width="30" height="20" rx="3" fill="#000"/>
  <line x1="380" y1="175" x2="390" y2="175" stroke="#000" stroke-width="3"/>

  <!-- Jas hitam -->
  <path d="M310 250 L490 250 L520 450 L280 450 Z" fill="#1c1c1c"/>
  <!-- Kerah -->
  <path d="M310 250 L400 290 L490 250 L460 290 L400 270 L340 290 Z" fill="#2c2c2c"/>

  <!-- Dasi merah -->
  <polygon points="390,250 410,250 420,300 380,300" fill="#e74c3c"/>
  <polygon points="380,300 420,300 405,360 395,360" fill="#c0392b"/>

  <!-- Koper hitam -->
  <rect x="230" y="370" width="80" height="60" rx="6" fill="#111"/>
  <rect x="255" y="360" width="30" height="10" rx="2" fill="#111"/>
  <rect x="265" y="395" width="20" height="5" fill="#444"/>

  <!-- Sniper Beretta -->
  <rect x="510" y="170" width="180" height="10" fill="#555"/>
  <rect x="510" y="170" width="25" height="70" fill="#333"/>
  <circle cx="690" cy="175" r="5" fill="#888"/>
  <rect x="525" y="190" width="5" height="30" fill="#444"/>
  <line x1="530" y1="205" x2="620" y2="205" stroke="#999" stroke-width="2"/>

  <!-- Teks Logo -->
  <text x="400" y="730" font-family="Arial Black, sans-serif" font-size="36" fill="#ffffff" text-anchor="middle" letter-spacing="2">
    NEWBIE CYBER SECURITY
  </text>
</svg>
